<?xml version="1.0" encoding="utf-8"?>
<!-- Generator: Adobe Illustrator 19.0.0, SVG Export Plug-In . SVG Version: 6.00 Build 0)  -->
<svg version="1.1" id="Laag_1" xmlns="http://www.w3.org/2000/svg" xmlns:xlink="http://www.w3.org/1999/xlink" x="0px" y="0px"
	 viewBox="-370 235.3 100 125" style="enable-background:new -370 235.3 100 125;" xml:space="preserve">
<style type="text/css">
	.st0{fill:#51B26A;}
</style>
<path class="st0" d="M-281.5,248.8h-26c-5.1,0-9.5,2.7-12,6.8c-2.5-4.1-6.9-6.8-12-6.8h-26c-3.3,0-6,2.7-6,6v52c0,3.3,2.7,6,6,6h26
	c4.1,0,8,3.4,10.1,8.7c0.3,0.8,1,1.3,1.9,1.3c0.8,0,1.6-0.5,1.9-1.3c2.2-5.4,6-8.7,10.1-8.7h26c3.3,0,6-2.7,6-6v-52
	C-275.5,251.5-278.2,248.8-281.5,248.8z M-331.5,308.8h-26c-1.1,0-2-0.9-2-2v-52c0-1.1,0.9-2,2-2h26c5.5,0,10,4.5,10,10v50.9
	C-324.3,310.6-327.8,308.8-331.5,308.8z M-279.5,306.8c0,1.1-0.9,2-2,2h-26c-3.7,0-7.2,1.8-10,4.9v-50.9c0-5.5,4.5-10,10-10h26
	c1.1,0,2,0.9,2,2V306.8z"/>
</svg>
